<svg width="24" height="48" viewBox="0 0 24 48" fill="none" xmlns="http://www.w3.org/2000/svg">
<path d="M20.0178 47.9998C19.5055 48.0015 18.9994 47.8885 18.5365 47.669C18.0736 47.4495 17.6658 47.1291 17.3431 46.7313L0.780099 26.1618C0.275728 25.5484 0 24.779 0 23.9849C0 23.1908 0.275728 22.4214 0.780099 21.8079L17.926 1.23846C18.5081 0.538357 19.3445 0.0980864 20.2513 0.0145066C21.1581 -0.0690731 22.0609 0.210884 22.7612 0.79279C23.4615 1.3747 23.9019 2.21088 23.9855 3.1174C24.0691 4.02392 23.7891 4.92651 23.207 5.62662L7.87852 24.002L22.6926 42.3774C23.1119 42.8807 23.3783 43.4934 23.4602 44.1432C23.5421 44.7931 23.4361 45.4527 23.1547 46.0442C22.8733 46.6357 22.4283 47.1342 21.8724 47.4807C21.3165 47.8273 20.6729 48.0074 20.0178 47.9998Z" fill="#727379"/>
</svg>
