<svg width="24" height="48" viewBox="0 0 24 48" fill="none" xmlns="http://www.w3.org/2000/svg">
<path d="M3.4048 47.9938C2.61043 47.9954 1.8406 47.717 1.22893 47.207C0.884675 46.9198 0.600106 46.5671 0.391522 46.1691C0.182937 45.771 0.0544377 45.3355 0.0133822 44.8875C-0.0276733 44.4394 0.0195228 43.9876 0.152266 43.5579C0.285009 43.1282 0.500689 42.7291 0.786959 42.3834L16.018 24.0469L1.33093 5.67623C1.04852 5.3263 0.837626 4.92367 0.710366 4.49146C0.583106 4.05926 0.541989 3.606 0.58938 3.15776C0.63677 2.70951 0.771731 2.27511 0.986509 1.87952C1.20129 1.48393 1.49165 1.13495 1.8409 0.852637C2.19266 0.541203 2.6046 0.306292 3.05086 0.162648C3.49713 0.0190045 3.96809 -0.0302704 4.43417 0.0179138C4.90026 0.066098 5.35142 0.210702 5.75934 0.442651C6.16725 0.6746 6.52312 0.988886 6.8046 1.36579L23.2256 21.8917C23.7257 22.5038 23.999 23.2716 23.999 24.064C23.999 24.8564 23.7257 25.6242 23.2256 26.2363L6.22663 46.7623C5.88557 47.1763 5.45233 47.5035 4.96204 47.7175C4.47176 47.9315 3.93825 48.0261 3.4048 47.9938Z" fill="#727379"/>
</svg>
